<svg xmlns="http://www.w3.org/2000/svg"  viewBox="0 0 48 48" width="48px" height="48px"><path fill="#38b47b" d="M19,20l-0.5,7.5c0,0,4.693,1.793,11.097-4.354L31,21c0,0-3.688-6.995-12.344-6.498l-0.174,2.815 c0,0,5.768,0.363,7.643,2.523C26.125,19.84,28,21,26,23l-2.252,1.614C23.748,24.614,22,19,19,20z"/><path fill="#38b47b" d="M18.504,36.022L18.5,39.5h29v-31h-29l0.085,3.936c0,0,4.681,0.021,10.548,2.793 c0,0,5.261,2.505,7.564,5.138C36.697,20.367,34,27,26,29c0,0-5.036,1.011-7.518,1.005l0.007,2.449c0,0,12.893,1.646,20.202-7.904 l4.955,2.543c0,0-3.989,9.711-24.818,8.309L18.504,36.022z"/><path fill="#38b47b" d="M18.482,30.005v-2.378c0,0-5.245-2.179-5.363-5.404c0,0,3.541-2.703,5.211-2.463l-0.08-2.443 c0,0-7.148,0.322-9.699,5.502C8.551,22.82,10.964,29.011,18.482,30.005z"/><path fill="#38b47b" d="M18.33,12.461V14.5c0,0-9.33,0.5-12.83,7c0,0,1.16,9.173,12.83,10.836l-0.133,2.998 c0,0-14.197-0.632-17.697-14.983C0.5,20.351,9.66,11.922,18.33,12.461z"/><path fill="#010101" d="M38.585,25.05c0.643,0,0.645-1,0-1C37.941,24.05,37.94,25.05,38.585,25.05L38.585,25.05z" opacity=".4"/><path fill="#010101" d="M48,8.5C48.005,8.23,47.767,8,47.5,8c-8.402,0-16.805,0-25.207,0c-1.264,0-2.529,0-3.793,0 c-0.261,0-0.512,0.229-0.5,0.5c0.052,1.151,0.063,2.306,0.063,3.462c-3.454,0.007-6.968,0.796-9.984,2.51 c-2.136,1.214-4.11,2.747-6.062,4.231c-0.585,0.444-1.24,0.864-1.775,1.369c-0.484,0.457-0.138,1.41,0.044,1.967 c0.79,2.412,2.405,4.594,4.063,6.478c1.976,2.247,4.352,4.294,7.11,5.509c2.089,0.92,4.287,1.485,6.53,1.771 C17.994,36.032,17.99,36.266,18,36.5c0.007,1,0.018,2,0,3c-0.005,0.27,0.233,0.5,0.5,0.5c8.387,0,16.774,0,25.161,0 c1.28,0,2.559,0,3.839,0c0.269,0,0.502-0.229,0.5-0.5C47.926,29.167,47.796,18.832,48,8.5z M18.958,34.901 c-0.013-0.654-0.021-1.309-0.021-1.964c1.861,0.163,3.739,0.103,5.511-0.106c5.405-0.636,10.95-3.236,14.199-7.747 c1.426,0.694,2.852,1.389,4.277,2.084c-4.482,5.919-12.7,7.511-19.706,7.825C21.8,35.056,20.373,35.032,18.958,34.901z M9.498,27.823c-1.256-1.235-2.417-2.693-3.071-4.344c-0.225-0.569-0.494-1.469-0.43-1.969c0.002-0.017,0.012-0.037,0.063-0.141 c0.069-0.139,0.156-0.269,0.243-0.396c1.375-2.004,3.687-3.531,5.847-4.545c1.864-0.874,3.87-1.337,5.89-1.39 c-0.008,0.599-0.013,1.198-0.019,1.796c-2.337,0.095-4.583,0.858-6.533,2.158c-1.195,0.797-2.576,1.834-3.337,3.089 c-0.479,0.79,0.359,2.015,0.786,2.66c1.062,1.604,2.544,2.927,4.206,3.885c1.524,0.879,3.162,1.432,4.842,1.71 c-0.001,0.477-0.003,0.953-0.003,1.43C14.811,31.318,11.861,30.146,9.498,27.823z M19.007,17.83 c1.406,0.059,2.805,0.362,4.117,0.883c0.669,0.265,1.314,0.597,1.925,0.977c0.517,0.321,1.189,0.743,1.363,1.369 c0.198,0.711-0.606,1.311-1.067,1.731c-0.436,0.396-0.905,0.746-1.389,1.077c-0.911-2.007-2.182-4.131-4.491-4.622 c-0.154-0.033-0.307-0.031-0.461-0.045C19.006,18.742,19.007,18.286,19.007,17.83z M17.993,26.819 c-0.094-0.032-0.194-0.045-0.286-0.082c-1.263-0.508-2.483-1.345-3.327-2.42c-0.413-0.525-0.701-1.111-0.872-1.748 c0.753-0.663,1.573-1.237,2.477-1.679c0.625-0.306,1.316-0.59,2.021-0.697C18.001,22.403,17.998,24.611,17.993,26.819z M18.99,26.824c0.005-2.214,0.007-4.428,0.013-6.642c0.097,0.013,0.194,0.023,0.29,0.046c2.172,0.507,3.221,2.787,4.023,4.639 c0.105,0.243,0.477,0.31,0.684,0.179c1.108-0.699,2.458-1.606,3.151-2.748c0.668-1.101,0.062-2.222-0.844-2.95 c-1.991-1.6-4.748-2.418-7.298-2.514c0.001-0.598,0.003-1.196,0.003-1.794c1.27,0.053,2.537,0.267,3.77,0.668 c1.846,0.601,3.566,1.569,5.099,2.754c0.767,0.593,1.49,1.245,2.17,1.936c0.204,0.207,0.401,0.348,0.44,0.643 c0.035,0.263-0.042,0.333-0.194,0.534c-0.157,0.208-0.325,0.409-0.496,0.606c-1.99,2.298-4.671,4.17-7.686,4.773 c-0.998,0.2-2.091,0.27-3.129,0.112C18.989,26.985,18.99,26.904,18.99,26.824z M16.633,29.018c-1.986-0.568-3.841-1.58-5.335-3.013 c-0.88-0.844-1.758-1.884-2.181-3.047c-0.029-0.079-0.075-0.272-0.101-0.36c0.018-0.032,0.035-0.066,0.053-0.091 c0.298-0.406,0.656-0.772,1.019-1.12c1.374-1.32,3.037-2.393,4.849-2.999c0.998-0.334,2.034-0.516,3.075-0.56 c-0.001,0.116-0.003,0.233-0.003,0.349c-0.001,0.346-0.001,0.692-0.002,1.037c-0.701,0.09-1.387,0.307-2.045,0.593 c-1.157,0.503-2.306,1.2-3.217,2.081c-0.653,0.631,0.047,1.839,0.453,2.484c0.481,0.763,1.119,1.409,1.831,1.958 c0.896,0.69,1.887,1.239,2.962,1.539c-0.001,0.484-0.002,0.969-0.003,1.453C17.535,29.24,17.083,29.147,16.633,29.018z M18.979,28.06c0.037,0.005,0.072,0.017,0.11,0.021c4.091,0.443,8.004-1.643,10.79-4.507c0.48-0.493,0.934-1.016,1.34-1.572 c0.78-1.065,0.047-1.82-0.742-2.594c-1.657-1.626-3.57-3.031-5.692-3.987c-1.858-0.837-3.81-1.269-5.771-1.348 c0-0.361,0.002-0.722,0.002-1.082c3.014,0.135,6.016,0.871,8.759,2.087c3.069,1.361,5.861,3.268,8.366,5.494 c-1.266,3.046-4.294,5.169-7.11,6.701c-3.091,1.681-6.592,2.562-10.065,2.181C18.972,28.988,18.975,28.524,18.979,28.06z M11.752,33.068c-2.759-1.257-5.101-3.365-7.044-5.661c-1.017-1.202-1.94-2.497-2.684-3.886c-0.455-0.848-0.918-1.818-0.997-2.8 c1.04-0.817,2.094-1.618,3.159-2.402c1.718-1.265,3.463-2.575,5.393-3.503c2.663-1.281,5.566-1.851,8.482-1.846 c-0.003,0.361-0.005,0.722-0.009,1.083c-2.128,0.047-4.25,0.524-6.257,1.442c-1.609,0.736-3.109,1.72-4.437,2.889 c-0.801,0.705-1.688,1.535-2.175,2.504c-0.243,0.483-0.192,0.954-0.107,1.483c0.161,0.992,0.575,1.942,1.074,2.808 c1.081,1.88,2.624,3.526,4.354,4.826c2.147,1.613,4.77,2.474,7.476,2.828c-0.002,0.65-0.007,1.301-0.008,1.953 C15.833,34.507,13.733,33.971,11.752,33.068z M26.88,39c-2.627,0-5.254,0-7.88,0c0.012-1.032,0.009-2.065,0-3.097 c1.099,0.099,2.206,0.141,3.314,0.119c3.839-0.078,7.816-0.593,11.489-1.734c3.275-1.017,6.418-2.676,8.802-5.179 c0.555-0.583,1.058-1.211,1.52-1.87c0.147-0.21,0.049-0.573-0.179-0.684c-1.734-0.845-3.468-1.689-5.202-2.534 c-0.058-0.028-0.114-0.037-0.169-0.044c-0.001,0-0.003-0.001-0.004-0.001c-0.03-0.004-0.058-0.004-0.087-0.002 c-0.157-0.005-0.317,0.054-0.424,0.226c-1.62,2.6-4.652,4.703-7.469,5.964c-3.235,1.448-6.791,1.943-10.312,1.814 c-0.45-0.016-0.895-0.05-1.339-0.092c0.004-0.474,0.009-0.948,0.015-1.422c2.884,0.29,5.852-0.216,8.559-1.357 c1.799-0.758,3.481-1.755,5.05-2.913c2.024-1.494,3.773-3.226,4.669-5.629c0.058-0.157-0.007-0.376-0.129-0.487 c-4.991-4.513-11.279-7.816-18.082-8.091c0.005-0.995,0.015-1.993-0.012-2.988c7.201,0,14.403,0,21.604,0c2.127,0,4.254,0,6.381,0 c-0.187,9.999-0.071,20,0.002,30C40.291,39,33.586,39,26.88,39z"/></svg>